<svg xmlns="http://www.w3.org/2000/svg" xmlns:xlink="http://www.w3.org/1999/xlink"><symbol id="icon-clock" viewBox="0 0 30 37">
<path d="M3.84612 11.9991L2.34001 10.4847C1.52177 9.66241 1.52177 8.32386 2.34001 7.50101C3.15825 6.67843 4.48973 6.67843 5.30797 7.50101L6.91603 9.1176C8.5935 7.94307 10.5057 7.13011 12.5092 6.73998V4.64204H11.11C10.7235 4.64204 10.4104 4.32719 10.4104 3.9387V2.11002C10.4104 0.946487 11.3518 0 12.5092 0H18.1063C19.2637 0 20.2052 0.946487 20.2052 2.11002V3.9387C20.2052 4.32719 19.892 4.64204 19.5055 4.64204H18.1063V6.73998C20.1095 7.12984 22.022 7.94307 23.6995 9.1176L25.3076 7.50101C26.1255 6.67843 27.457 6.67843 28.2755 7.50101C29.0938 8.32359 29.0938 9.66214 28.2755 10.4847L26.7694 11.9991C28.8571 14.6133 30 17.8695 30 21.2409C30 29.3851 23.409 36.011 15.3078 36.011C7.20654 36.011 0.615528 29.3851 0.615528 21.2409C0.615528 17.8695 1.75844 14.6133 3.84612 11.9991ZM4.31865 8.49558C4.04563 8.22139 3.60207 8.22166 3.32933 8.49558C3.05685 8.76977 3.05685 9.21595 3.32933 9.49015L4.77505 10.9433C5.10081 10.607 5.44243 10.2863 5.79771 9.98276L4.31865 8.49558ZM18.8059 2.11002C18.8059 1.72208 18.4922 1.40668 18.1063 1.40668H12.5092C12.1234 1.40668 11.8096 1.72208 11.8096 2.11002V3.23536H18.8059V2.11002ZM13.9085 4.64204V6.53722C14.8358 6.44985 15.7795 6.44985 16.707 6.53722V4.64204H13.9085ZM27.2862 8.49558C27.0135 8.22166 26.5696 8.22139 26.2969 8.49558L24.8178 9.98276C25.1731 10.2863 25.5147 10.607 25.8405 10.9433L27.2862 9.49015C27.5587 9.21595 27.5587 8.76977 27.2862 8.49558ZM15.3078 34.6043C22.6375 34.6043 28.6007 28.6095 28.6007 21.2409C28.6007 17.9904 27.4269 14.8586 25.2958 12.4219C24.7088 11.7507 24.0537 11.1375 23.3489 10.5985C21.5826 9.24727 19.4919 8.35793 17.3028 8.02632C16.6477 7.92769 15.9765 7.87741 15.3078 7.87741C14.639 7.87741 13.9678 7.92769 13.313 8.02632C11.1236 8.35793 9.03296 9.24727 7.26639 10.5985C6.56184 11.1375 5.90676 11.7507 5.31972 12.4219C3.18858 14.8586 2.01479 17.9904 2.01479 21.2409C2.01479 28.6095 7.97804 34.6043 15.3078 34.6043Z" fill="currentColor"/>
<path d="M15.3074 23.3508C14.15 23.3508 13.2085 22.4043 13.2085 21.2408C13.2085 20.324 13.7933 19.542 14.6077 19.2516V14.2074C14.6077 13.8189 14.9209 13.504 15.3074 13.504C15.6938 13.504 16.007 13.8189 16.007 14.2074V19.2516C16.8214 19.542 17.4062 20.324 17.4062 21.2408C17.4062 22.4043 16.4648 23.3508 15.3074 23.3508ZM15.3074 20.5374C14.9215 20.5374 14.6077 20.8528 14.6077 21.2408C14.6077 21.6287 14.9215 21.9441 15.3074 21.9441C15.6932 21.9441 16.007 21.6287 16.007 21.2408C16.007 20.8528 15.6932 20.5374 15.3074 20.5374Z" fill="currentColor"/>
<path d="M7.85482 13.8205C7.86575 13.8076 7.87668 13.7947 7.88898 13.7826C7.9021 13.7692 7.91603 13.7571 7.92997 13.745C9.16307 12.5185 10.6864 11.6111 12.3396 11.1204C12.7104 11.0105 13.0993 11.2231 13.2086 11.5957C13.3179 11.9682 13.1064 12.3595 12.7358 12.4694C11.5109 12.8331 10.3683 13.4617 9.39428 14.3011L9.86625 14.7755C10.1393 15.0503 10.1393 15.4956 9.86625 15.7704C9.72961 15.9078 9.5506 15.9764 9.37132 15.9764C9.19231 15.9764 9.01331 15.9078 8.87666 15.7704L8.40359 15.2948C7.1377 16.7746 6.38587 18.5961 6.23938 20.5374H6.91223C7.29866 20.5374 7.61186 20.8526 7.61186 21.2408C7.61186 21.6293 7.29866 21.9441 6.91223 21.9441H6.23938C6.38587 23.8857 7.1377 25.707 8.40359 27.1868L8.87666 26.7112C9.14995 26.4367 9.59296 26.4367 9.86625 26.7112C10.1395 26.9859 10.1395 27.4313 9.86625 27.706L9.39318 28.1816C10.8651 29.4542 12.6771 30.21 14.6082 30.3576V29.6809C14.6082 29.2924 14.9214 28.9775 15.3078 28.9775C15.6942 28.9775 16.0074 29.2924 16.0074 29.6809V30.3573C17.9385 30.21 19.7504 29.4542 21.2224 28.1816L20.7493 27.706C20.476 27.4313 20.476 26.9859 20.7493 26.7112C21.0226 26.4367 21.4656 26.4367 21.7389 26.7112L22.212 27.1868C23.4779 25.707 24.2297 23.8854 24.3762 21.9441H23.7034C23.3169 21.9441 23.0037 21.6293 23.0037 21.2408C23.0037 20.8523 23.3169 20.5374 23.7034 20.5374H24.3762C24.2297 18.5961 23.4779 16.7746 22.212 15.2948L21.7389 15.7704C21.6023 15.9078 21.4233 15.9764 21.2443 15.9764C21.065 15.9764 20.886 15.9078 20.7493 15.7704C20.4763 15.4956 20.4763 15.0503 20.7493 14.7755L21.2213 14.3011C20.2473 13.4615 19.1047 12.8331 17.8798 12.4694C17.5092 12.3595 17.2976 11.9682 17.407 11.5957C17.5163 11.2231 17.9049 11.0108 18.276 11.1204C19.9289 11.6108 21.4517 12.518 22.6845 13.7439C22.699 13.7563 22.7132 13.7689 22.7266 13.7824C22.7386 13.7944 22.7493 13.8071 22.7602 13.8197C24.7222 15.8105 25.8022 18.4436 25.8022 21.2408C25.8022 24.0377 24.7222 26.6705 22.7608 28.661C22.7498 28.6739 22.7389 28.6868 22.7266 28.6989C22.7146 28.7113 22.702 28.722 22.6894 28.733C20.7092 30.7051 18.0902 31.7909 15.3078 31.7909C12.5257 31.7909 9.9067 30.7054 7.92669 28.7335C7.91385 28.7223 7.901 28.7113 7.88898 28.6989C7.87695 28.6871 7.86629 28.6742 7.85536 28.6618C5.89339 26.6711 4.81334 24.0379 4.81334 21.2408C4.81334 18.4439 5.89339 15.811 7.85482 13.8205Z" fill="currentColor"/>
<path d="M15.3077 12.0974C14.9215 12.0974 14.6081 11.7822 14.6081 11.394C14.6081 11.0058 14.9215 10.6907 15.3077 10.6907C15.6939 10.6907 16.0073 11.0058 16.0073 11.394C16.0073 11.7822 15.6939 12.0974 15.3077 12.0974Z" fill="currentColor"/>
</symbol><symbol id="icon-detective" viewBox="0 0 31 26">
<path d="M15.7697 8.18542C15.443 8.18542 15.1777 8.45125 15.1777 8.77924C15.1777 9.107 15.443 9.37306 15.7697 9.37306C16.0964 9.37306 16.3617 9.107 16.3617 8.77924C16.3617 8.45125 16.0964 8.18542 15.7697 8.18542Z" fill="currentColor"/>
<path d="M29.148 11.7484H26.8446C25.6304 8.27037 23.8686 2.17193 20.6771 0.445918C19.0809 -0.416274 17.5721 0.185892 17.0046 1.40924C16.7632 1.9293 16.2811 2.20278 15.7696 2.20278C15.2511 2.20278 14.7729 1.92327 14.5345 1.40971C13.9872 0.228109 12.5144 -0.429264 10.9742 0.32066C7.73154 1.9003 5.91819 8.24415 4.69448 11.7484H2.39113C1.40999 11.7484 0.615234 12.5454 0.615234 13.5298C0.615234 14.5119 1.41184 15.3113 2.39113 15.3113H29.148C30.1291 15.3113 30.9239 14.514 30.9239 13.5298C30.9239 12.5475 30.1273 11.7484 29.148 11.7484ZM6.77399 9.3731H13.4017C13.7287 9.3731 13.9937 9.10704 13.9937 8.77928C13.9937 8.45129 13.7287 8.18547 13.4017 8.18547H7.18791C8.97236 3.24079 10.6393 1.80404 11.4912 1.38906C12.4206 0.936744 13.1855 1.3153 13.4611 1.91051C13.8954 2.84623 14.7937 3.39041 15.7696 3.39041C16.7477 3.39041 17.6449 2.84414 18.078 1.91051C18.3617 1.29837 19.1306 0.959476 20.1154 1.49136C20.9712 1.95435 22.6331 3.43889 24.351 8.18547H18.1374C17.8105 8.18547 17.5455 8.45129 17.5455 8.77928C17.5455 9.10727 17.8105 9.3731 18.1374 9.3731H24.7654C25.0646 10.2388 25.3754 11.132 25.5904 11.7484H5.94894C6.1633 11.1337 6.47338 10.2425 6.77399 9.3731ZM29.148 14.1236H2.39113C2.06463 14.1236 1.79917 13.8571 1.79917 13.5298C1.79917 13.2018 2.06416 12.936 2.39113 12.936H29.148C29.4745 12.936 29.74 13.2023 29.74 13.5298C29.74 13.8576 29.4747 14.1236 29.148 14.1236Z" fill="currentColor"/>
<path d="M14.5859 17.6866H5.11443C4.78746 17.6866 4.52246 17.9525 4.52246 18.2804V20.6557C4.52246 23.6025 6.91252 26.0001 9.85015 26.0001C12.076 26.0001 14.0462 24.6266 14.8298 22.5575C15.425 22.2852 16.1146 22.2852 16.7098 22.5575C17.4935 24.6266 19.4636 25.9998 21.6895 25.9998C24.6271 25.9998 27.0172 23.6025 27.0172 20.6555V18.2802C27.0172 17.9522 26.7522 17.6864 26.4252 17.6864H16.9537C16.6268 17.6864 16.3618 17.9522 16.3618 18.2802V18.874H15.1778V18.2802C15.1778 17.9525 14.9129 17.6866 14.5859 17.6866ZM9.85015 24.8124C7.5653 24.8124 5.70639 22.9477 5.70639 20.6557V18.8743H13.9939V20.6557C13.9939 22.9537 12.1449 24.8124 9.85015 24.8124ZM17.5457 18.8743H25.8332V20.6557C25.8332 22.9477 23.9743 24.8124 21.6895 24.8124C19.3889 24.8124 17.5457 22.9482 17.5457 20.6557V18.8743ZM16.3618 20.0619V20.6557C16.3618 20.8455 16.3726 21.0345 16.3923 21.2222C15.9809 21.1468 15.5587 21.1468 15.1473 21.2222C15.167 21.0345 15.1778 20.8455 15.1778 20.6557V20.0619H16.3618Z" fill="currentColor"/>
<path d="M9.84997 22.437C8.87068 22.437 8.07407 21.6377 8.07407 20.6556C8.07407 20.3276 7.80907 20.0618 7.4821 20.0618C7.15513 20.0618 6.89014 20.3276 6.89014 20.6556C6.89014 22.2925 8.2179 23.6247 9.84997 23.6247C10.1769 23.6247 10.4419 23.3586 10.4419 23.0308C10.4419 22.7029 10.1769 22.437 9.84997 22.437Z" fill="currentColor"/>
<path d="M21.6896 23.6247C23.3217 23.6247 24.6495 22.2925 24.6495 20.6556C24.6495 20.3276 24.3845 20.0618 24.0575 20.0618C23.7305 20.0618 23.4655 20.3276 23.4655 20.6556C23.4655 21.6377 22.6689 22.437 21.6896 22.437C21.3627 22.437 21.0977 22.7029 21.0977 23.0308C21.0977 23.3586 21.3627 23.6247 21.6896 23.6247Z" fill="currentColor"/>
</symbol><symbol id="icon-email" viewBox="0 0 26 19">
<path d="M22.2407 0H3.09787C1.38906 0 0 1.34493 0 2.99946V15.6672C0 17.3217 1.38906 18.6667 3.09787 18.6667H22.2355C23.9443 18.6667 25.3333 17.3217 25.3333 15.6672V3.00453C25.3386 1.35001 23.9495 0 22.2407 0ZM23.9233 15.6672C23.9233 16.5655 23.1685 17.2964 22.2407 17.2964H3.09787C2.17008 17.2964 1.41527 16.5655 1.41527 15.6672V3.00453C1.41527 2.10622 2.17008 1.37539 3.09787 1.37539H22.2355C23.1632 1.37539 23.9181 2.10622 23.9181 3.00453V15.6672H23.9233Z" fill="#00B2FF"/>
<path d="M15.9768 9.17598L22.1725 3.79624C22.4608 3.54248 22.487 3.11108 22.2249 2.82687C21.9629 2.54773 21.5173 2.52236 21.2238 2.77612L12.6797 10.2012L11.0129 8.75981C11.0076 8.75473 11.0024 8.74966 11.0024 8.74458C10.9657 8.70905 10.929 8.6786 10.8871 8.64815L4.10425 2.77104C3.81071 2.51728 3.36517 2.54266 3.10308 2.82687C2.84099 3.11108 2.8672 3.54248 3.16074 3.79624L9.42986 9.22165L3.18695 14.8805C2.90389 15.1394 2.88817 15.5708 3.1555 15.8499C3.29702 15.992 3.48573 16.0681 3.67443 16.0681C3.84741 16.0681 4.02038 16.0072 4.15667 15.8854L10.4939 10.1453L12.2132 11.6324C12.3495 11.7491 12.5172 11.8049 12.685 11.8049C12.8527 11.8049 13.0257 11.744 13.1567 11.6273L14.9232 10.0946L21.2238 15.8905C21.3601 16.0174 21.5383 16.0783 21.7112 16.0783C21.9 16.0783 22.0834 16.0072 22.2249 15.8651C22.4923 15.5911 22.4818 15.1546 22.1987 14.8958L15.9768 9.17598Z" fill="#00B2FF"/>
</symbol><symbol id="icon-fb" viewBox="0 0 27 27">
<path fill-rule="evenodd" clip-rule="evenodd" d="M27 13.5C27 6.04462 20.9562 0 13.5 0C6.04379 0 0 6.04462 0 13.5C0 20.9562 6.04369 27 13.5 27C20.9562 27 27 20.9563 27 13.5ZM16.8836 9.29395H15.1437C14.6754 9.29395 14.3464 9.69053 14.3464 10.185V10.9604H16.8312L16.4288 13.4772H14.3455V20.2238H11.8025V13.4772H10.115V10.9604H11.8025V9.677H11.8075C11.8523 8.21392 12.3602 6.82092 14.8383 6.73315V6.72388H16.8836V9.29395Z" fill="currentColor"/>
</symbol><symbol id="icon-hired" viewBox="0 0 32 32">
<path d="M28.5547 25.5023C28.8947 25.0283 29.0958 24.4466 29.0958 23.8181V20.0625C29.0958 19.7173 28.8184 19.4375 28.4763 19.4375H25.7076C24.4276 19.4375 23.3863 20.488 23.3863 21.7793V23.8181C23.3863 24.4462 23.5872 25.0274 23.9268 25.5013C23.5033 25.5706 23.0958 25.7075 22.7158 25.9079C21.8551 24.6121 20.4448 23.7185 18.8243 23.5678C18.818 23.5659 18.8115 23.5646 18.8052 23.5631C19.385 22.9099 19.7384 22.0481 19.7384 21.1044V16C19.7384 15.6548 19.461 15.375 19.1189 15.375H15.3558C13.7389 15.375 12.4235 16.7021 12.4235 18.3333V21.1043C12.4235 22.0481 12.7769 22.9098 13.3567 23.563C13.3503 23.5646 13.3439 23.5659 13.3376 23.5677C11.7168 23.7184 10.3066 24.6122 9.44586 25.9081C9.06573 25.7078 8.65821 25.5708 8.23489 25.5015C8.57451 25.0276 8.77554 24.4463 8.77554 23.8181V20.0625C8.77554 19.7173 8.49812 19.4375 8.15602 19.4375H5.38726C4.10733 19.4375 3.06603 20.488 3.06603 21.7793V23.8181C3.06603 24.4466 3.26719 25.0283 3.60719 25.5023C1.68958 25.8185 0.221191 27.5009 0.221191 29.5235V31.375C0.221191 31.7202 0.498613 32 0.840713 32H31.3212C31.6633 32 31.9407 31.7202 31.9407 31.375V29.5235C31.9407 27.5009 30.4723 25.8185 28.5547 25.5023ZM4.30508 21.7793C4.30508 21.1773 4.79053 20.6875 5.38726 20.6875H7.5365V21.4487C7.5365 21.8219 7.23554 22.1256 6.86562 22.1256H4.30508V21.7793ZM4.30508 23.3755H6.86562C7.10166 23.3755 7.32766 23.3318 7.5365 23.2524V23.8181C7.5365 24.7169 6.81172 25.4481 5.92079 25.4481C5.02985 25.4481 4.30508 24.7169 4.30508 23.8181V23.3755ZM6.32019 26.6981L5.92079 27.1011L5.52138 26.6981H6.32019ZM8.55698 28.8585V30.75H1.46023V29.5235C1.46023 28.1216 2.47767 26.9555 3.80655 26.7359L5.48272 28.4269C5.59895 28.5441 5.75649 28.61 5.92079 28.61C6.08509 28.61 6.24263 28.5441 6.35885 28.4269L8.03552 26.7353C8.33166 26.784 8.61645 26.8803 8.88185 27.0211C8.67196 27.594 8.55698 28.213 8.55698 28.8585ZM16.081 23.5442C14.7475 23.5442 13.6626 22.4497 13.6626 21.1044V20.2783H17.3651C17.7756 20.2783 18.1622 20.1725 18.4994 19.9866V21.1044C18.4994 22.4497 17.4145 23.5442 16.081 23.5442ZM17.1609 24.7941L16.0809 25.8836L15.001 24.7941H17.1609ZM13.6625 18.3333H13.6625C13.6625 17.3913 14.4221 16.625 15.3558 16.625H18.4994V17.884C18.4994 18.515 17.9905 19.0284 17.365 19.0284H13.6625V18.3333ZM22.3658 30.75H21.161H11.0009H9.79608V29.5H13.83C14.1721 29.5 14.4496 29.2202 14.4496 28.875C14.4496 28.5298 14.1721 28.25 13.83 28.25H9.84137C10.1069 26.4737 11.5163 25.0715 13.2858 24.8316L15.6429 27.2095C15.7639 27.3315 15.9224 27.3925 16.0809 27.3925C16.2395 27.3925 16.398 27.3315 16.519 27.2095L18.876 24.8316C20.8434 25.0983 22.3658 26.8019 22.3658 28.8585V30.75ZM24.6254 21.7793C24.6254 21.1773 25.1108 20.6875 25.7076 20.6875H27.8568V21.4487C27.8568 21.8219 27.5558 22.1256 27.1859 22.1256H24.6254V21.7793ZM24.6254 23.3755H27.1859C27.422 23.3755 27.648 23.3318 27.8568 23.2524V23.8181C27.8568 24.7169 27.132 25.4481 26.2411 25.4481C25.3502 25.4481 24.6254 24.7169 24.6254 23.8181V23.3755ZM26.6405 26.6981L26.2411 27.1011L25.8417 26.6981H26.6405ZM23.6048 30.75V28.8585C23.6048 28.2129 23.4899 27.594 23.2799 27.021C23.5452 26.88 23.8299 26.7838 24.1261 26.7352L25.803 28.4269C25.9192 28.5441 26.0767 28.61 26.241 28.61C26.4053 28.61 26.5629 28.5441 26.6791 28.4269L28.3553 26.7359C29.6841 26.9556 30.7016 28.1216 30.7016 29.5235V30.75H23.6048Z" fill="currentColor"/>
<path d="M19.1336 4.08356C18.8917 3.8395 18.4995 3.8395 18.2575 4.08356L15.2175 7.1505L13.9033 5.82469C13.6613 5.58056 13.2691 5.58056 13.0271 5.82462C12.7852 6.06869 12.7852 6.46444 13.0271 6.70856L14.7794 8.47632C14.8956 8.5935 15.0532 8.65938 15.2175 8.65938C15.3818 8.65938 15.5393 8.5935 15.6555 8.47632L19.1336 4.96744C19.3756 4.72337 19.3756 4.32762 19.1336 4.08356Z" fill="currentColor"/>
<path d="M18.6144 0.541883C18.3019 0.40132 17.9356 0.542883 17.7962 0.858133C17.6568 1.17338 17.7972 1.54295 18.1097 1.68351C19.9063 2.49182 21.0671 4.29601 21.0671 6.27989C21.0671 9.05339 18.8305 11.3098 16.0813 11.3098C13.3321 11.3098 11.0954 9.05339 11.0954 6.27989C11.0954 4.30626 12.2479 2.50582 14.0315 1.69313C14.3433 1.55107 14.482 1.18082 14.3411 0.866258C14.2003 0.551633 13.8331 0.41182 13.5215 0.553883C11.2951 1.56838 9.85645 3.81595 9.85645 6.27983C9.85638 9.74264 12.6489 12.5598 16.0813 12.5598C19.5137 12.5598 22.3062 9.74264 22.3062 6.27989C22.3062 3.8032 20.857 1.55088 18.6144 0.541883Z" fill="currentColor"/>
<path d="M16.1031 0H16.0809C15.7388 0 15.4614 0.279813 15.4614 0.625001C15.4614 0.970189 15.7388 1.25 16.0809 1.25H16.0973C16.0983 1.25 16.0992 1.25 16.1003 1.25C16.4411 1.25 16.7181 0.972126 16.7197 0.627938C16.7213 0.28275 16.4453 0.001625 16.1031 0Z" fill="currentColor"/>
<path d="M16.5189 28.433C16.4037 28.3168 16.2439 28.2499 16.0809 28.2499C15.918 28.2499 15.7582 28.3168 15.6429 28.433C15.5277 28.5493 15.4614 28.7105 15.4614 28.8749C15.4614 29.0393 15.5277 29.2005 15.6429 29.3168C15.7582 29.433 15.918 29.4999 16.0809 29.4999C16.2439 29.4999 16.4037 29.433 16.5189 29.3168C16.6341 29.2005 16.7005 29.0393 16.7005 28.8749C16.7005 28.7105 16.6342 28.5493 16.5189 28.433Z" fill="currentColor"/>
</symbol><symbol id="icon-ok" viewBox="0 0 27 26">
<path d="M13.8512 10.957C14.8668 10.957 15.6568 10.1213 15.638 9.2113C15.6568 8.3013 14.8857 7.44702 13.87 7.44702C12.892 7.44702 12.0833 8.22702 12.0833 9.19273C12.0833 10.1584 12.8732 10.957 13.8512 10.957Z" fill="#CDCDCD"/>
<path d="M13.701 0C6.44113 0 0.5354 5.8314 0.5354 12.9999C0.5354 20.187 6.44113 25.9999 13.701 25.9999C20.9797 25.9999 26.8667 20.1685 26.8667 12.9999C26.8855 5.8314 20.9797 0 13.701 0ZM13.8891 4.9214C16.2589 4.9214 18.215 6.85282 18.1962 9.21138C18.1962 11.5885 16.2213 13.5014 13.8139 13.4642C11.4441 13.4271 9.54445 11.5142 9.54445 9.19281C9.54445 6.83425 11.4817 4.9214 13.8891 4.9214ZM18.7228 14.9499C18.7228 14.9871 18.704 15.0056 18.704 15.0428C18.6475 15.4142 18.4595 15.7114 18.1397 15.9156C17.9328 16.0456 17.7071 16.1756 17.4814 16.2871C16.9172 16.5656 16.3153 16.7885 15.6947 16.9371C15.6195 16.9556 15.6195 16.9556 15.6759 17.0113C16.0144 17.3456 16.3718 17.6985 16.7103 18.0328C17.1429 18.4599 17.5943 18.9056 18.0269 19.3328C18.6475 19.9456 18.4783 20.967 17.6883 21.3385C17.5567 21.4128 17.4062 21.4313 17.2558 21.4685C17.1805 21.4685 17.0865 21.4685 17.0112 21.4685C16.9924 21.4685 16.9736 21.4685 16.9736 21.4499C16.6727 21.4128 16.4282 21.2642 16.2025 21.0599C15.4502 20.317 14.679 19.5556 13.9267 18.8128C13.8703 18.7571 13.8703 18.7571 13.8139 18.8128C13.0427 19.5742 12.2904 20.317 11.5193 21.0785C11.3876 21.2085 11.256 21.3013 11.0867 21.3756C10.9739 21.4313 10.8422 21.4499 10.7294 21.4685C10.6541 21.4685 10.5789 21.4685 10.4849 21.4685C10.4472 21.4685 10.4284 21.4499 10.3908 21.4499C9.883 21.357 9.54445 21.0785 9.39399 20.5956C9.24352 20.1128 9.35637 19.6856 9.71373 19.3328C10.0335 19.017 10.3344 18.7199 10.6541 18.4042C11.1243 17.9399 11.5945 17.4756 12.0459 17.0299C12.1023 16.9742 12.1023 16.9742 12.0271 16.9556C12.0083 16.9556 11.9707 16.9371 11.9519 16.9371C11.1055 16.7328 10.3344 16.3985 9.60088 15.9528C9.16829 15.6742 8.9614 15.2656 9.01783 14.7642C9.11187 13.8356 10.1651 13.3342 10.9551 13.8356C11.1055 13.9285 11.2372 14.0028 11.4064 14.0771C12.2716 14.5042 13.1932 14.6899 14.1524 14.6342C14.6226 14.6156 15.0928 14.5228 15.563 14.3742C16.0144 14.2256 16.4094 14.0214 16.8232 13.7985C17.5003 13.4085 18.3842 13.7242 18.6475 14.4485C18.6852 14.5599 18.704 14.6528 18.7228 14.7642C18.7228 14.8199 18.7228 14.8756 18.7228 14.9499Z" fill="currentColor"/>
</symbol><symbol id="icon-phone" viewBox="0 0 25 24">
<path d="M19.6447 14.8671C19.1526 14.3555 18.5591 14.082 17.9301 14.082C17.3062 14.082 16.7076 14.3505 16.1952 14.8621L14.5922 16.4576C14.4603 16.3867 14.3285 16.3209 14.2016 16.255C14.019 16.1639 13.8465 16.0777 13.6994 15.9866C12.1979 15.0343 10.8333 13.7933 9.52458 12.1875C8.89048 11.3872 8.46437 10.7135 8.15494 10.0297C8.5709 9.6498 8.95643 9.2547 9.33181 8.87479C9.47385 8.73296 9.61588 8.58607 9.75792 8.44424C10.8232 7.38051 10.8232 6.00273 9.75792 4.93901L8.37306 3.55616C8.21581 3.39913 8.05348 3.23704 7.9013 3.07495C7.59693 2.7609 7.27735 2.43671 6.94762 2.13279C6.45557 1.64652 5.86713 1.38818 5.24826 1.38818C4.62938 1.38818 4.0308 1.64652 3.52353 2.13279C3.51845 2.13786 3.51845 2.13786 3.51338 2.14292L1.78865 3.88034C1.13934 4.52871 0.76903 5.31891 0.687866 6.23574C0.56612 7.71483 1.00238 9.09261 1.33718 9.99424C2.15896 12.2078 3.38656 14.2593 5.21782 16.4576C7.43968 19.1068 10.113 21.1988 13.1668 22.6729C14.3335 23.225 15.8909 23.8784 17.6308 23.9898C17.7373 23.9949 17.8489 24 17.9504 24C19.1222 24 20.1063 23.5796 20.8774 22.7438C20.8824 22.7336 20.8926 22.7286 20.8977 22.7184C21.1614 22.3993 21.4658 22.1106 21.7854 21.8016C22.0035 21.5939 22.2267 21.3761 22.4448 21.1482C22.947 20.6264 23.2108 20.0186 23.2108 19.3956C23.2108 18.7675 22.942 18.1647 22.4296 17.6581L19.6447 14.8671ZM21.4607 20.201C21.4557 20.201 21.4557 20.206 21.4607 20.201C21.2629 20.4137 21.06 20.6062 20.8419 20.8189C20.5121 21.133 20.1773 21.4622 19.8628 21.832C19.3505 22.3791 18.7468 22.6374 17.9555 22.6374C17.8794 22.6374 17.7982 22.6374 17.7221 22.6323C16.2155 22.5361 14.8154 21.9485 13.7654 21.447C10.8942 20.0591 8.37306 18.0887 6.27802 15.5915C4.54822 13.5096 3.39164 11.5848 2.62565 9.5181C2.15389 8.25682 1.98141 7.27414 2.05751 6.34718C2.10823 5.75453 2.33651 5.26319 2.75754 4.84276L4.48735 3.11547C4.73591 2.88247 4.99969 2.75583 5.2584 2.75583C5.57799 2.75583 5.83669 2.94832 5.99902 3.11041C6.0041 3.11547 6.00917 3.12054 6.01424 3.1256C6.32368 3.41433 6.6179 3.71319 6.92733 4.03231C7.08459 4.1944 7.24692 4.35649 7.40924 4.52365L8.7941 5.90649C9.33181 6.44342 9.33181 6.93983 8.7941 7.47675C8.64699 7.62365 8.50495 7.77054 8.35785 7.91237C7.93174 8.348 7.52592 8.75323 7.08459 9.14832C7.07444 9.15846 7.0643 9.16352 7.05922 9.17365C6.62297 9.60927 6.70413 10.0348 6.79544 10.3235C6.80051 10.3387 6.80559 10.3539 6.81066 10.3691C7.17083 11.2403 7.6781 12.0609 8.44915 13.0385L8.45423 13.0436C9.8543 14.7658 11.3305 16.1081 12.9588 17.1364C13.1668 17.2681 13.3799 17.3745 13.5828 17.4758C13.7654 17.567 13.9379 17.6531 14.085 17.7443C14.1053 17.7544 14.1255 17.7696 14.1458 17.7797C14.3183 17.8658 14.4806 17.9063 14.648 17.9063C15.0691 17.9063 15.3329 17.6429 15.4191 17.5568L17.154 15.8245C17.3264 15.6523 17.6004 15.4446 17.92 15.4446C18.2345 15.4446 18.4932 15.6421 18.6504 15.8143C18.6555 15.8194 18.6555 15.8194 18.6606 15.8245L21.4557 18.6155C21.9781 19.1322 21.9781 19.664 21.4607 20.201Z" fill="#00B2FF"/>
<path d="M13.6384 5.70896C14.9675 5.93184 16.1748 6.55994 17.1386 7.52236C18.1024 8.48478 18.7264 9.69034 18.9546 11.0175C19.0104 11.3518 19.2996 11.5848 19.6293 11.5848C19.6699 11.5848 19.7054 11.5797 19.746 11.5747C20.1214 11.5139 20.3699 11.1593 20.3091 10.7845C20.0351 9.17874 19.2742 7.71484 18.1126 6.55488C16.9509 5.39491 15.4849 4.6351 13.8768 4.36157C13.5014 4.30079 13.1514 4.54899 13.0855 4.91876C13.0195 5.28853 13.263 5.64817 13.6384 5.70896Z" fill="#00B2FF"/>
<path d="M24.6564 10.5869C24.2049 7.94279 22.957 5.53674 21.0395 3.62203C19.122 1.70732 16.7124 0.461243 14.0645 0.0104253C13.6942 -0.0554245 13.3442 0.197844 13.2782 0.567616C13.2173 0.942453 13.4659 1.29196 13.8413 1.35781C16.2052 1.75798 18.3611 2.87742 20.0757 4.58445C21.7903 6.29654 22.9063 8.44933 23.307 10.8098C23.3628 11.1441 23.652 11.3771 23.9817 11.3771C24.0223 11.3771 24.0578 11.372 24.0984 11.367C24.4687 11.3113 24.7223 10.9567 24.6564 10.5869Z" fill="#00B2FF"/>
</symbol><symbol id="icon-tag" viewBox="0 0 33 32">
<path d="M10.7945 8.43992C10.6776 8.323 10.5155 8.25574 10.3502 8.25574C10.1849 8.25574 10.0227 8.323 9.90583 8.43992C9.78899 8.55684 9.72168 8.71902 9.72168 8.88434C9.72168 9.04966 9.78893 9.21185 9.90583 9.32877C10.0227 9.44575 10.1849 9.51295 10.3502 9.51295C10.5155 9.51295 10.6776 9.44569 10.7945 9.32877C10.9114 9.21185 10.9787 9.04966 10.9787 8.88434C10.9787 8.71902 10.9114 8.55684 10.7945 8.43992Z" fill="currentColor"/>
<path d="M32.6111 2.61363L31.8339 1.83982L32.6108 1.06715C32.8563 0.823046 32.8563 0.427236 32.6108 0.183075C32.3653 -0.0610248 31.9675 -0.0610248 31.7219 0.183075L30.9455 0.955253L30.1798 0.192763C30.0619 0.0754958 29.9021 0.0094858 29.7355 0.0094233L19.0977 0.00354741C19.0971 0.00354741 19.0965 0.00354741 19.0959 0.00354741C18.2559 0.00354741 17.4662 0.328846 16.8722 0.919623L11.5638 6.19917C11.3184 6.44327 11.3184 6.83908 11.5638 7.08324C11.8093 7.32734 12.2071 7.32734 12.4527 7.08324L17.7611 1.80369C18.1177 1.44902 18.5917 1.2538 19.0959 1.2538C19.0963 1.2538 19.0967 1.2538 19.097 1.2538L29.4744 1.25955L30.0568 1.83939L27.7247 4.15874C26.7358 3.56965 25.4321 3.6981 24.5809 4.54461C24.0946 5.02831 23.8268 5.67134 23.8268 6.35532C23.8268 7.0393 24.0946 7.68233 24.5809 8.16603C25.0828 8.66523 25.7422 8.91483 26.4015 8.91483C27.0608 8.91483 27.7201 8.66523 28.2221 8.16603C29.072 7.32071 29.202 6.02664 28.6128 5.04362L30.9452 2.72396L31.5378 3.31411L31.5321 13.6211C31.5317 14.1222 31.3354 14.5933 30.9791 14.9477L15.642 30.2013C15.2855 30.5559 14.8114 30.7512 14.3072 30.7512C13.803 30.7512 13.3289 30.5559 12.9724 30.2013L2.42522 19.7114C2.0686 19.3568 1.87225 18.8853 1.87225 18.3838C1.87225 17.8824 2.0686 17.4109 2.42522 17.0562L9.20017 10.3181C9.4456 10.074 9.4456 9.67819 9.20017 9.43403C8.95468 9.18993 8.55683 9.18993 8.31127 9.43403L1.53632 16.1722C0.942374 16.7629 0.615234 17.5484 0.615234 18.3838C0.615234 19.2193 0.942374 20.0048 1.53632 20.5955L12.0835 31.0854C12.6966 31.6951 13.5018 32 14.3072 32C15.1126 32 15.9178 31.6951 16.5309 31.0854L31.8679 15.8316C32.4614 15.2413 32.7885 14.4565 32.789 13.6217L32.7949 3.0557C32.795 2.88992 32.7289 2.7309 32.6111 2.61363ZM27.3332 7.2819C27.0843 7.52943 26.7534 7.66577 26.4015 7.66577C26.0495 7.66577 25.7187 7.52943 25.4698 7.2819C24.956 6.77094 24.956 5.93951 25.4698 5.42855C25.7267 5.17302 26.064 5.04531 26.4015 5.04531C26.5286 5.04531 26.6556 5.0635 26.7785 5.09975L26.053 5.82124C25.8076 6.06534 25.8076 6.46115 26.053 6.70531C26.1758 6.82739 26.3366 6.8884 26.4974 6.8884C26.6583 6.8884 26.8191 6.82739 26.9419 6.70531L27.6653 5.98582C27.7959 6.43083 27.6854 6.93165 27.3332 7.2819Z" fill="currentColor"/>
<path d="M27.4632 13.2023L20.1386 5.87659C19.1683 4.90615 17.5895 4.90627 16.6193 5.87659L5.02826 17.4694C4.5582 17.9395 4.29932 18.5645 4.29932 19.2293C4.29932 19.8941 4.55814 20.5192 5.0282 20.9893L12.3528 28.3149C12.8229 28.7851 13.4478 29.044 14.1125 29.044C14.7772 29.044 15.4022 28.7851 15.8721 28.315L27.4632 16.7221C27.9333 16.252 28.1921 15.6271 28.1921 14.9622C28.1921 14.2974 27.9333 13.6724 27.4632 13.2023ZM26.5743 15.8331L14.9833 27.4261C14.7507 27.6587 14.4414 27.7868 14.1125 27.7868C13.7837 27.7868 13.4744 27.6587 13.2418 27.426L5.9171 20.1003C5.68449 19.8677 5.5564 19.5584 5.5564 19.2294C5.55634 18.9004 5.68449 18.5911 5.9171 18.3585L17.5082 6.76562C17.7483 6.52549 18.0636 6.40543 18.379 6.40543C18.6943 6.40543 19.0097 6.52556 19.2497 6.76562L26.5743 14.0913C26.8069 14.324 26.935 14.6332 26.935 14.9622C26.935 15.2912 26.8069 15.6005 26.5743 15.8331Z" fill="currentColor"/>
<path d="M21.1098 13.1218C21.3553 12.8764 21.3553 12.4783 21.1098 12.2328C20.8643 11.9873 20.4665 11.9873 20.2209 12.2328L19.859 12.5948C18.8927 11.9978 17.6528 12.0779 16.869 12.8617C16.412 13.3188 16.1782 13.9395 16.2106 14.6094C16.242 15.2563 16.5205 15.8739 16.9949 16.3483C16.9949 16.3484 16.995 16.3484 16.995 16.3485C17.5005 16.8543 17.5569 17.6207 17.1208 18.057C16.6844 18.4933 15.918 18.4368 15.4123 17.9311C14.9066 17.4253 14.8501 16.6587 15.2864 16.2224C15.5318 15.9769 15.5318 15.5789 15.2864 15.3333C15.0409 15.0879 14.643 15.0879 14.3975 15.3333C13.6137 16.1172 13.5337 17.3573 14.1306 18.3239L13.7012 18.7533C13.4557 18.9987 13.4557 19.3968 13.7012 19.6423C13.8242 19.7652 13.9851 19.8265 14.1459 19.8265C14.3068 19.8265 14.4676 19.7651 14.5903 19.6424L15.02 19.2127C15.4422 19.4735 15.9165 19.6056 16.3823 19.6056C16.9825 19.6056 17.5684 19.3873 18.0097 18.946C18.9359 18.0196 18.8796 16.456 17.8843 15.4599C17.8841 15.4597 17.884 15.4596 17.8838 15.4594C17.6308 15.2063 17.4825 14.8829 17.4662 14.5485C17.4512 14.2372 17.5547 13.9539 17.7579 13.7508C18.1941 13.3144 18.9604 13.3709 19.4662 13.8765C19.4662 13.8765 19.4662 13.8766 19.4663 13.8767C19.4664 13.8767 19.4664 13.8767 19.4664 13.8767C19.972 14.3826 20.0284 15.149 19.5921 15.5853C19.3467 15.8308 19.3467 16.2288 19.5921 16.4743C19.7149 16.5971 19.8757 16.6584 20.0365 16.6584C20.1974 16.6584 20.3582 16.5971 20.481 16.4743C21.2647 15.6904 21.3448 14.4503 20.7479 13.4838L21.1098 13.1218Z" fill="currentColor"/>
<path d="M14.7493 23.5431L11.5212 20.3145C11.2758 20.0692 10.8779 20.0691 10.6323 20.3145C10.3869 20.56 10.3869 20.958 10.6323 21.2035L13.8605 24.4322C13.9832 24.5549 14.1441 24.6163 14.3049 24.6163C14.4657 24.6163 14.6266 24.5549 14.7493 24.4322C14.9947 24.1867 14.9947 23.7887 14.7493 23.5431Z" fill="currentColor"/>
<path d="M9.79888 18.5923C9.68204 18.4755 9.52045 18.4081 9.35458 18.4081C9.18929 18.4081 9.02776 18.4754 8.91023 18.5923C8.79333 18.7092 8.72607 18.8714 8.72607 19.0374C8.72607 19.2027 8.79326 19.3649 8.91023 19.4818C9.02713 19.5987 9.18929 19.666 9.35458 19.666C9.52051 19.666 9.68204 19.5987 9.79888 19.4818C9.91641 19.3643 9.98366 19.2027 9.98366 19.0374C9.98366 18.8714 9.91641 18.7099 9.79888 18.5923Z" fill="currentColor"/>
</symbol><symbol id="icon-vk" viewBox="0 0 27 26">
<path d="M19.475 15.1271C18.3662 14.1029 18.287 14.1029 19.2374 12.9211C20.4254 11.4243 22.0095 9.53349 20.5838 9.53349H17.9701C17.4949 9.53349 17.4157 9.84862 17.2573 10.2425C16.6237 11.7394 15.3565 13.709 14.8812 13.3938C14.406 13.0787 14.6436 11.897 14.6436 10.0062C14.7228 9.76984 14.6436 9.53349 14.4852 9.37592C14.3268 9.21836 14.0892 9.06079 13.8516 9.06079C13.4556 8.98201 13.0596 8.90323 12.6636 8.90323C11.1587 8.90323 10.1291 9.53349 10.6835 9.61227C11.7131 9.76984 11.6339 11.9758 11.3963 12.9211C11.0003 14.5756 9.41624 11.6606 8.70342 10.1638C8.62421 9.76984 8.3074 9.53349 7.91139 9.53349H5.85212C5.53531 9.53349 5.2977 9.61227 5.2977 9.84862C5.2977 10.2425 7.27777 14.1029 9.09943 16.0725C10.9211 17.9632 12.7428 17.8057 14.01 17.8057C14.1684 17.8057 14.3268 17.7269 14.406 17.6481C14.4852 17.5693 14.5644 17.4118 14.5644 17.2542C14.5644 15.9937 15.0396 15.3634 15.9109 16.23C16.8613 17.1754 17.0989 17.8057 18.287 17.8057H20.4254C20.9799 17.8057 21.1383 17.6481 21.1383 17.4118C21.2175 16.8603 20.267 15.8361 19.475 15.1271ZM13.8516 0.000789162C21.2175 0.158354 27.0785 6.06705 26.9993 13.2363C26.9201 20.4055 20.8214 26.0778 13.4556 25.9991C6.01052 25.9203 0.0703125 20.1691 0.0703125 12.9999C0.149515 5.75192 6.32733 -0.0779935 13.8516 0.000789162Z" fill="currentColor"/>
</symbol></svg>